<svg width="901" height="316" viewBox="0 0 901 316" fill="none" xmlns="http://www.w3.org/2000/svg">
<rect width="901" height="316" fill="url(#paint0_linear_3_37)"/>
<path d="M444.572 16.0089C429.93 15.7855 415.767 19.7844 404.127 27.5373C390.82 36.407 382.404 49.0955 380.437 63.2899C378.47 77.4843 383.183 91.4697 393.694 102.674C404.213 113.885 419.282 120.975 436.13 122.633C438.636 122.878 441.142 123 443.631 123C457.845 123 471.554 119.001 482.878 111.464C496.185 102.595 504.592 89.899 506.559 75.7118C508.535 61.5174 503.823 47.5319 493.312 36.3277C482.784 25.1163 467.723 18.0263 450.875 16.3691C448.771 16.1602 446.667 16.0449 444.572 16.0089ZM443.383 19.6908C445.701 19.6908 448.035 19.8061 450.37 20.0366C482.741 23.2286 506.003 48.0147 502.215 75.2867C500.385 88.5011 492.551 100.318 480.167 108.568C467.774 116.818 452.312 120.521 436.635 118.965C404.264 115.78 381.002 90.987 384.79 63.715C386.621 50.5005 394.455 38.6839 406.839 30.4338C417.384 23.4087 430.144 19.6908 443.383 19.6908ZM450.345 29.1369C450.062 29.1009 449.772 29.1153 449.481 29.1801C448.309 29.4323 447.599 30.4338 447.89 31.421C449.66 37.286 446.162 39.8799 439.834 43.9725C436.105 46.3863 431.88 49.1243 429.374 53.289C424.277 62.5694 434.711 68.9893 438.132 71.1004C438.525 71.3382 438.978 71.4607 439.423 71.4607C440.099 71.4607 440.766 71.1941 441.193 70.7041C441.903 69.8755 441.698 68.7227 440.723 68.1246C433.137 63.4556 430.862 59.3558 433.308 54.8957C435.335 51.5381 438.978 49.182 442.502 46.9051C448.215 43.2088 454.698 39.0153 452.132 30.5131C451.91 29.7709 451.183 29.2522 450.345 29.1369ZM461.155 43.987C460.881 43.9509 460.582 43.9581 460.291 44.023C459.692 44.1455 445.538 47.1933 440.903 54.0023C439.329 56.308 438.978 58.765 439.851 61.3084C440.133 62.1154 441.005 62.6414 441.955 62.6414C442.16 62.6414 442.365 62.6126 442.57 62.5621C443.725 62.2811 444.392 61.258 444.059 60.2781C443.52 58.7145 443.725 57.2591 444.7 55.8396C447.77 51.3219 457.759 48.3606 461.351 47.5968C462.523 47.3518 463.242 46.3503 462.942 45.3632C462.728 44.621 462.001 44.095 461.155 43.987ZM406.522 44.1022C405.966 44.1743 405.436 44.4193 405.077 44.8228C404.358 45.637 404.555 46.797 405.53 47.4023L409.037 49.6071C409.43 49.852 409.892 49.9673 410.345 49.9673C411.012 49.9673 411.671 49.7151 412.098 49.2324C412.817 48.4182 412.62 47.2581 411.654 46.6457L408.139 44.4481C407.651 44.1455 407.069 44.0302 406.522 44.1022ZM484.768 48.1156C484.494 48.1444 484.212 48.2237 483.947 48.3533C482.912 48.8793 482.57 50.0106 483.186 50.8824C484.041 52.0929 484.828 53.3538 485.512 54.6291C485.888 55.3064 486.684 55.7099 487.513 55.7099C487.821 55.7099 488.129 55.6595 488.42 55.5442C489.523 55.1191 490.011 54.0311 489.506 53.1016C488.745 51.6966 487.89 50.3204 486.949 49.0018C486.487 48.3389 485.615 48.0147 484.768 48.1156ZM400.801 53.116C399.945 53.1304 399.141 53.57 398.816 54.2833C398.363 55.2344 398.91 56.3008 400.031 56.6754L404.102 58.0372C404.367 58.1309 404.641 58.1741 404.914 58.1741C405.778 58.1741 406.608 57.7346 406.95 57.0069C407.394 56.0558 406.847 54.9894 405.727 54.6075L401.656 53.2457C401.374 53.1521 401.083 53.1088 400.801 53.116ZM490.943 59.6368C490.661 59.5936 490.361 59.608 490.07 59.6656C488.899 59.8962 488.163 60.8833 488.437 61.8776C490.241 68.42 490.002 75.2651 487.761 81.6778C487.419 82.6505 488.078 83.6808 489.241 83.969C489.446 84.0195 489.651 84.0483 489.857 84.0483C490.806 84.0483 491.678 83.5295 491.952 82.7225C494.415 75.6974 494.672 68.2039 492.696 61.0418C492.491 60.2997 491.781 59.7593 490.943 59.6368ZM398.098 63.1674C396.892 63.0521 395.806 63.7726 395.661 64.7886C395.524 65.7973 396.379 66.7124 397.585 66.8349L401.929 67.26C402.015 67.2744 402.109 67.2816 402.186 67.2816C403.281 67.2816 404.23 66.5827 404.358 65.646C404.495 64.6301 403.64 63.715 402.443 63.5997L398.098 63.1674ZM445.547 63.8807C444.991 63.8447 444.418 63.9888 443.956 64.3202C443.041 64.9903 442.947 66.1576 443.742 66.9285C445.059 68.2039 445.153 69.4144 444.05 70.8338C443.391 71.6912 443.674 72.8297 444.683 73.3917C445.051 73.5934 445.47 73.6871 445.88 73.6871C446.59 73.6871 447.3 73.3989 447.71 72.8585C449.883 70.07 449.635 67.0222 447.043 64.5076C446.65 64.1185 446.103 63.9095 445.547 63.8807ZM467.389 69.0037C465.97 68.9676 464.499 69.1622 463.062 69.5873C461.916 69.9259 461.317 70.9779 461.711 71.9362C462.113 72.8945 463.37 73.4061 464.507 73.0674C467.312 72.2316 469.562 72.8801 470.725 73.7591C471.324 74.2131 472.273 75.193 471.862 76.6773C471.178 79.228 467.022 81.6489 460.77 83.1548C459.607 83.4286 458.931 84.4518 459.265 85.4317C459.538 86.2387 460.419 86.7647 461.369 86.7647C461.565 86.7647 461.771 86.7431 461.976 86.6998C472.829 84.0915 475.506 79.8188 476.139 77.5131C476.797 75.1065 475.865 72.6784 473.641 71.0067C471.965 69.7458 469.75 69.0613 467.389 69.0037ZM431.658 69.1262C431.256 69.1694 423.114 69.1478 416.922 72.1091C414.151 73.5502 414.767 75.2795 415.023 75.7766C415.724 77.1384 418.513 78.0679 422.464 78.6083C420.882 79.7972 420.796 81.0221 421.155 81.9876C421.668 83.3854 423.576 84.5022 426.372 85.2948C425.354 85.9072 424.73 86.6134 424.525 87.4492C424.354 88.1193 424.345 89.445 426.133 90.6843C428.485 92.3055 433.975 93.5088 440.441 93.5088C445.572 93.5088 451.328 92.7523 456.605 90.8429C457.717 90.4394 458.238 89.3586 457.759 88.4219C457.281 87.4852 455.989 87.0457 454.886 87.4564C444.204 91.304 432.248 89.6756 429.306 88.0976C429.708 87.9247 430.375 87.687 431.427 87.442C431.461 87.4348 433.992 86.7863 436.652 86.7719C436.763 86.7719 436.866 86.7286 436.977 86.7142C437.73 86.7359 438.491 86.7575 439.269 86.7575C445.042 86.7575 451.405 86.0946 457.161 84.6751C458.324 84.3869 458.991 83.3638 458.649 82.3839C458.307 81.4112 457.092 80.8491 455.929 81.1374C441.972 84.5743 428.596 82.7081 425.722 81.1229C426.158 80.878 426.971 80.5105 428.45 80.0926C429.323 79.862 431.983 79.2712 433.915 79.2424C433.924 79.2424 433.933 79.2424 433.95 79.2424C442.673 79.2063 452.5 78.2913 459.034 76.8142C460.205 76.5476 460.898 75.5388 460.582 74.5517C460.274 73.5718 459.068 72.981 457.905 73.2476C450.302 74.9696 441.407 75.5893 434.001 75.5821C433.95 75.5821 433.907 75.5605 433.856 75.5533C433.693 75.5605 433.513 75.5749 433.342 75.5821C427.826 75.5533 423.199 75.1714 420.676 74.6454C425.585 72.8369 431.581 72.8153 431.649 72.8153C432.855 72.8153 433.838 71.9939 433.838 70.9707C433.838 69.9548 432.863 69.1334 431.658 69.1262ZM402.032 72.9954L397.696 73.5286C396.499 73.6727 395.678 74.6094 395.849 75.6181C396.011 76.5332 396.943 77.1961 398.012 77.1961C398.115 77.1961 398.218 77.1889 398.329 77.1745L402.665 76.6413C403.862 76.4972 404.683 75.5605 404.512 74.5517C404.333 73.543 403.212 72.8297 402.032 72.9954ZM405.368 82.0092C405.085 82.0092 404.795 82.0596 404.521 82.1605L400.501 83.6232C399.389 84.0267 398.876 85.1075 399.355 86.0441C399.714 86.7431 400.518 87.161 401.365 87.161C401.656 87.161 401.947 87.1105 402.237 87.0024L406.257 85.547C407.369 85.1363 407.882 84.0555 407.403 83.126C407.035 82.4199 406.223 82.002 405.368 82.0092ZM421.609 88.8758C417.999 88.6453 413.15 89.9134 410.833 91.0806C408.139 92.4424 407.754 93.9267 407.899 94.9283C408.267 97.378 412.03 98.3291 413.364 98.6678C421.275 100.339 429.622 101.038 437.456 101.038C454.835 101.046 469.63 97.5942 471.247 93.6817C471.76 92.428 471.341 90.7204 468.621 89.6828C467.526 89.2649 466.226 89.6756 465.73 90.6051C465.277 91.4553 465.645 92.4352 466.543 92.9252C462.096 95.7857 438.166 100.109 414.527 95.1156C413.561 94.8634 412.962 94.64 412.611 94.4743C414.45 93.235 420.625 91.9813 422.147 92.6802C423.131 93.2566 424.491 93.0549 425.183 92.2335C425.876 91.3977 425.637 90.2448 424.653 89.654C423.866 89.1929 422.806 88.9551 421.609 88.8758ZM471.349 95.6416C470.101 95.5767 469.091 96.3261 468.989 97.342C468.732 100.181 453.945 103.517 431.358 102.299C430.161 102.278 429.118 103.013 429.032 104.029C428.964 105.044 429.87 105.916 431.085 105.988C431.572 106.01 435.224 106.197 440.21 106.197C452.448 106.197 472.675 105.066 473.359 97.6302C473.453 96.6071 472.555 95.7208 471.349 95.6416Z" fill="black"/>
<defs>
<linearGradient id="paint0_linear_3_37" x1="450.5" y1="0" x2="450.5" y2="316" gradientUnits="userSpaceOnUse">
<stop stop-color="#406ABC"/>
<stop offset="1" stop-color="#E658FD" stop-opacity="0.56"/>
</linearGradient>
</defs>
</svg>
