<svg width="901" height="302" viewBox="0 0 901 302" fill="none" xmlns="http://www.w3.org/2000/svg">
<rect width="901" height="302" fill="url(#paint0_linear_3_47)"/>
<ellipse cx="459.5" cy="72" rx="65.5" ry="54" fill="#161414"/>
<rect width="87" height="68" transform="translate(416 38)" fill="#110E0E"/>
<path d="M459.5 42.25C452.742 42.25 449.06 43.5917 446.437 44.4801H446.434C444.073 45.2847 442.652 46.9516 442.037 48.5254C441.422 50.0992 441.375 51.6718 441.375 53.0742V57.8333H435.286C433.492 57.8333 431.48 57.8697 429.466 58.3507C427.453 58.8318 425.32 59.9422 424.291 61.7873V61.79C423.154 63.8403 421.438 66.7179 421.438 72C421.438 77.2821 423.154 80.1596 424.291 82.21V82.2127C425.32 84.0578 427.453 85.1682 429.466 85.6493C431.48 86.1302 433.492 86.1667 435.286 86.1667H441.375V90.9258C441.375 92.3282 441.422 93.9008 442.037 95.4746C442.652 97.0484 444.073 98.7153 446.434 99.5199H446.437C449.06 100.408 452.742 101.75 459.5 101.75C466.258 101.75 469.94 100.408 472.563 99.5199H472.566C474.927 98.7153 476.348 97.0484 476.963 95.4746C477.578 93.9008 477.625 92.3282 477.625 90.9258V86.1667H483.714C485.508 86.1667 487.52 86.1303 489.534 85.6493C491.547 85.1682 493.68 84.0578 494.709 82.2127V82.21C495.846 80.1597 497.562 77.2821 497.562 72C497.562 66.7179 495.846 63.8404 494.709 61.79V61.7873C493.68 59.9423 491.547 58.8318 489.534 58.3507C487.52 57.8697 485.508 57.8333 483.714 57.8333H477.625V53.0742C477.625 51.6718 477.578 50.0992 476.963 48.5254C476.348 46.9516 474.927 45.2847 472.566 44.4801H472.563C469.94 43.5917 466.258 42.25 459.5 42.25ZM459.5 46.5C465.424 46.5 467.582 47.4237 470.393 48.376C471.15 48.6339 471.445 48.9545 471.763 49.7677C472.081 50.581 472.187 51.7992 472.187 53.0742V59.6097C472.14 59.8378 472.14 60.0705 472.187 60.2987V64.9167C472.187 67.6793 469.378 69.875 465.844 69.875H453.156C446.682 69.875 441.375 74.0231 441.375 79.0833V81.9167H435.286C433.655 81.9167 432.096 81.8332 431.056 81.5846C430.015 81.3361 429.605 81.1055 429.275 80.5138C428.057 78.3169 426.875 76.6306 426.875 72C426.875 67.3695 428.057 65.6831 429.275 63.4862C429.605 62.8946 430.015 62.6639 431.056 62.4154C432.096 62.1668 433.655 62.0833 435.286 62.0833H458.594C458.954 62.0873 459.312 62.0353 459.646 61.9303C459.98 61.8253 460.285 61.6694 460.541 61.4717C460.798 61.274 461.001 61.0384 461.141 60.7786C461.28 60.5188 461.351 60.24 461.351 59.9583C461.351 59.6767 461.28 59.3979 461.141 59.1381C461.001 58.8783 460.798 58.6427 460.541 58.445C460.285 58.2473 459.98 58.0914 459.646 57.9864C459.312 57.8814 458.954 57.8294 458.594 57.8333H446.812V53.0742C446.812 51.7992 446.919 50.581 447.237 49.7677C447.555 48.9545 447.85 48.6339 448.607 48.376C451.418 47.4237 453.576 46.5 459.5 46.5ZM453.156 50.75C452.435 50.75 451.744 50.9739 451.234 51.3724C450.724 51.7709 450.437 52.3114 450.437 52.875C450.437 53.4386 450.724 53.9791 451.234 54.3776C451.744 54.7761 452.435 55 453.156 55C453.877 55 454.569 54.7761 455.079 54.3776C455.589 53.9791 455.875 53.4386 455.875 52.875C455.875 52.3114 455.589 51.7709 455.079 51.3724C454.569 50.9739 453.877 50.75 453.156 50.75ZM477.625 62.0833H483.714C485.345 62.0833 486.904 62.1668 487.944 62.4154C488.985 62.6639 489.395 62.8946 489.725 63.4862C490.943 65.6831 492.125 67.3695 492.125 72C492.125 76.6306 490.943 78.3169 489.725 80.5138C489.395 81.1055 488.985 81.3361 487.944 81.5846C486.904 81.8332 485.345 81.9167 483.714 81.9167H460.406C460.046 81.9127 459.688 81.9647 459.354 82.0697C459.02 82.1747 458.715 82.3306 458.459 82.5283C458.202 82.726 457.998 82.9617 457.859 83.2214C457.72 83.4812 457.649 83.7601 457.649 84.0417C457.649 84.3233 457.72 84.6021 457.859 84.8619C457.998 85.1217 458.202 85.3573 458.459 85.555C458.715 85.7527 459.02 85.9086 459.354 86.0136C459.688 86.1186 460.046 86.1707 460.406 86.1667H472.187V90.9258C472.187 92.2008 472.081 93.419 471.763 94.2323C471.445 95.0456 471.15 95.3661 470.393 95.624C467.582 96.5763 465.424 97.5 459.5 97.5C453.576 97.5 451.418 96.5763 448.607 95.624C447.85 95.3661 447.555 95.0456 447.237 94.2323C446.919 93.419 446.812 92.2008 446.812 90.9258V79.0833C446.812 76.3207 449.622 74.125 453.156 74.125H465.844C472.318 74.125 477.625 69.9769 477.625 64.9167V62.0833ZM465.844 89C465.123 89 464.431 89.2239 463.921 89.6224C463.411 90.0209 463.125 90.5614 463.125 91.125C463.125 91.6886 463.411 92.2291 463.921 92.6276C464.431 93.0261 465.123 93.25 465.844 93.25C466.565 93.25 467.256 93.0261 467.766 92.6276C468.276 92.2291 468.562 91.6886 468.562 91.125C468.562 90.5614 468.276 90.0209 467.766 89.6224C467.256 89.2239 466.565 89 465.844 89Z" fill="white"/>
<defs>
<linearGradient id="paint0_linear_3_47" x1="450.5" y1="0" x2="450.5" y2="302" gradientUnits="userSpaceOnUse">
<stop stop-color="#406ABC"/>
<stop offset="1" stop-color="#E658FD" stop-opacity="0.56"/>
</linearGradient>
</defs>
</svg>
