<svg width="188" height="170" viewBox="0 0 188 170" fill="none" xmlns="http://www.w3.org/2000/svg">
<g filter="url(#filter0_d_5_7)">
<path d="M51 77L69.2821 3L102.308 77M102.308 77L124.718 3M102.308 77H143" stroke="#1C147B" stroke-width="5" stroke-linejoin="round"/>
</g>
<path d="M20.1528 97H18.5051L22.2231 89.7273H24.2046L25.5044 97H23.8566L22.9724 91.3892H22.9156L20.1528 97ZM20.5292 94.1413H24.4213L24.2153 95.3416H20.3232L20.5292 94.1413ZM33.2325 92.2734H31.6984C31.7032 92.0698 31.6771 91.8899 31.6203 91.7337C31.5635 91.575 31.4782 91.4401 31.3646 91.3288C31.2533 91.2176 31.1172 91.1335 30.9562 91.0767C30.7952 91.0175 30.6141 90.9879 30.4129 90.9879C30.0247 90.9879 29.6684 91.085 29.344 91.2791C29.0197 91.4732 28.7462 91.755 28.5237 92.1243C28.3012 92.4912 28.1473 92.9351 28.0621 93.456C27.9792 93.9579 27.9839 94.3781 28.0763 94.7166C28.1686 95.0552 28.3319 95.3108 28.5663 95.4837C28.8031 95.6541 29.0978 95.7393 29.4506 95.7393C29.6684 95.7393 29.8755 95.7121 30.072 95.6577C30.2685 95.6009 30.4472 95.5204 30.6082 95.4162C30.7716 95.3097 30.9136 95.1806 31.0344 95.0291C31.1575 94.8776 31.2533 94.706 31.322 94.5142H32.8667C32.7697 94.848 32.6182 95.17 32.4122 95.4801C32.2086 95.7902 31.9565 96.0672 31.6558 96.3111C31.3551 96.5526 31.0131 96.7443 30.6295 96.8864C30.246 97.0284 29.8258 97.0994 29.3689 97.0994C28.7084 97.0994 28.1414 96.9479 27.6679 96.6449C27.1968 96.3419 26.857 95.9051 26.6487 95.3345C26.4404 94.764 26.4013 94.0762 26.5315 93.2713C26.6617 92.4924 26.9162 91.8319 27.295 91.2898C27.6762 90.7453 28.139 90.3321 28.6835 90.0504C29.2304 89.7687 29.8151 89.6278 30.4378 89.6278C30.871 89.6278 31.2628 89.687 31.6132 89.8054C31.9636 89.9238 32.2619 90.0966 32.5081 90.3239C32.7567 90.5488 32.9437 90.8246 33.0692 91.1513C33.1946 91.478 33.2491 91.852 33.2325 92.2734ZM34.6743 97H33.0265L36.7446 89.7273H38.7261L40.0258 97H38.3781L37.4939 91.3892H37.4371L34.6743 97ZM35.0507 94.1413H38.9427L38.7368 95.3416H34.8447L35.0507 94.1413ZM43.5148 97H40.9012L42.1086 89.7273H44.6725C45.404 89.7273 46.0113 89.8764 46.4942 90.1747C46.9796 90.473 47.3216 90.9003 47.5205 91.4567C47.7194 92.0107 47.7549 92.6723 47.627 93.4418C47.5039 94.1851 47.2589 94.8232 46.892 95.3558C46.525 95.8861 46.0551 96.2933 45.4822 96.5774C44.9092 96.8591 44.2535 97 43.5148 97ZM42.659 95.6825H43.6036C44.0605 95.6825 44.4606 95.5973 44.8039 95.4268C45.1495 95.2564 45.4324 94.9936 45.6526 94.6385C45.8751 94.2834 46.0326 93.8288 46.1249 93.2749C46.2125 92.7493 46.2066 92.3232 46.1072 91.9964C46.0101 91.6674 45.8219 91.4271 45.5425 91.2756C45.2632 91.1217 44.8962 91.0447 44.4417 91.0447H43.4296L42.659 95.6825ZM48.1766 97L49.384 89.7273H54.2845L54.0715 90.995H50.7085L50.4244 92.728H53.5352L53.3222 93.9957H50.2114L49.9273 95.7322H53.3044L53.0914 97H48.1766ZM55.507 89.7273H57.4033L58.6001 94.6136H58.6853L61.4942 89.7273H63.3905L62.1832 97H60.6917L61.48 92.2663H61.4161L58.7599 96.9645H57.7407L56.6469 92.2486H56.5866L55.7911 97H54.2996L55.507 89.7273ZM66.195 89.7273L64.9877 97H63.45L64.6574 89.7273H66.195ZM73.4474 92.2734H71.9133C71.918 92.0698 71.892 91.8899 71.8351 91.7337C71.7783 91.575 71.6931 91.4401 71.5795 91.3288C71.4682 91.2176 71.3321 91.1335 71.1711 91.0767C71.0101 91.0175 70.829 90.9879 70.6278 90.9879C70.2395 90.9879 69.8832 91.085 69.5589 91.2791C69.2345 91.4732 68.9611 91.755 68.7385 92.1243C68.516 92.4912 68.3621 92.9351 68.2769 93.456C68.194 93.9579 68.1988 94.3781 68.2911 94.7166C68.3834 95.0552 68.5468 95.3108 68.7812 95.4837C69.0179 95.6541 69.3126 95.7393 69.6654 95.7393C69.8832 95.7393 70.0903 95.7121 70.2868 95.6577C70.4833 95.6009 70.6621 95.5204 70.8231 95.4162C70.9864 95.3097 71.1285 95.1806 71.2492 95.0291C71.3723 94.8776 71.4682 94.706 71.5368 94.5142H73.0816C72.9845 94.848 72.833 95.17 72.627 95.4801C72.4234 95.7902 72.1713 96.0672 71.8707 96.3111C71.57 96.5526 71.2279 96.7443 70.8444 96.8864C70.4608 97.0284 70.0406 97.0994 69.5837 97.0994C68.9232 97.0994 68.3562 96.9479 67.8827 96.6449C67.4116 96.3419 67.0719 95.9051 66.8635 95.3345C66.6552 94.764 66.6162 94.0762 66.7464 93.2713C66.8766 92.4924 67.1311 91.8319 67.5099 91.2898C67.891 90.7453 68.3538 90.3321 68.8983 90.0504C69.4452 89.7687 70.03 89.6278 70.6526 89.6278C71.0858 89.6278 71.4777 89.687 71.828 89.8054C72.1784 89.9238 72.4767 90.0966 72.7229 90.3239C72.9715 90.5488 73.1585 90.8246 73.284 91.1513C73.4095 91.478 73.4639 91.852 73.4474 92.2734ZM83.2369 89.7273L84.0821 95.2528H84.1496L86.8236 89.7273H88.5281L84.8137 97H82.8321L81.5289 89.7273H83.2369ZM90.9411 89.7273L89.7338 97H88.1961L89.4035 89.7273H90.9411ZM90.9988 97L92.2062 89.7273H95.0756C95.6248 89.7273 96.077 89.8243 96.4321 90.0185C96.7896 90.2126 97.0405 90.4884 97.1849 90.8459C97.3317 91.201 97.366 91.62 97.2879 92.103C97.2074 92.5859 97.0334 93.0002 96.7659 93.3459C96.5007 93.6915 96.1551 93.9579 95.729 94.1449C95.3052 94.3295 94.814 94.4219 94.2552 94.4219H92.3341L92.5471 93.1861H94.2162C94.5097 93.1861 94.7607 93.1458 94.969 93.0653C95.1773 92.9848 95.3419 92.8641 95.4626 92.7031C95.5857 92.5421 95.6662 92.3421 95.7041 92.103C95.7443 91.8591 95.7301 91.6555 95.6615 91.4922C95.5928 91.3265 95.4685 91.201 95.2886 91.1158C95.1087 91.0282 94.872 90.9844 94.5784 90.9844H93.5415L92.5365 97H90.9988ZM95.4733 93.6903L96.7339 97H95.0365L93.8149 93.6903H95.4733ZM98.3373 90.995L98.5503 89.7273H104.523L104.31 90.995H102.084L101.089 97H99.5695L100.564 90.995H98.3373ZM109.999 89.7273H111.537L110.756 94.4503C110.668 94.9806 110.466 95.4446 110.148 95.8423C109.831 96.2401 109.427 96.5502 108.937 96.7727C108.447 96.9929 107.9 97.103 107.297 97.103C106.693 97.103 106.184 96.9929 105.77 96.7727C105.355 96.5502 105.056 96.2401 104.871 95.8423C104.687 95.4446 104.638 94.9806 104.726 94.4503L105.507 89.7273H107.045L106.281 94.3189C106.239 94.5959 106.26 94.8421 106.345 95.0575C106.433 95.273 106.577 95.4422 106.778 95.5653C106.98 95.6884 107.228 95.75 107.524 95.75C107.822 95.75 108.092 95.6884 108.334 95.5653C108.578 95.4422 108.778 95.273 108.934 95.0575C109.092 94.8421 109.193 94.5959 109.236 94.3189L109.999 89.7273ZM112.848 97H111.2L114.918 89.7273H116.9L118.2 97H116.552L115.668 91.3892H115.611L112.848 97ZM113.225 94.1413H117.117L116.911 95.3416H113.019L113.225 94.1413ZM119.075 97L120.282 89.7273H121.82L120.826 95.7322H123.944L123.731 97H119.075ZM129.378 97L130.585 89.7273H132.123L131.128 95.7322H134.246L134.033 97H129.378ZM135.052 97L136.259 89.7273H141.16L140.946 90.995H137.584L137.299 92.728H140.41L140.197 93.9957H137.086L136.802 95.7322H140.179L139.966 97H135.052ZM145.972 91.8402C145.984 91.5443 145.898 91.3158 145.713 91.1548C145.531 90.9938 145.255 90.9134 144.886 90.9134C144.635 90.9134 144.417 90.9489 144.232 91.0199C144.047 91.0885 143.9 91.1844 143.788 91.3075C143.679 91.4283 143.612 91.5679 143.586 91.7266C143.56 91.8568 143.568 91.9704 143.611 92.0675C143.656 92.1645 143.726 92.2486 143.82 92.3196C143.917 92.3883 144.032 92.4486 144.165 92.5007C144.297 92.5504 144.438 92.593 144.587 92.6286L145.212 92.7848C145.518 92.8558 145.792 92.9505 146.036 93.0689C146.282 93.1873 146.488 93.3329 146.654 93.5057C146.822 93.6785 146.94 93.8821 147.009 94.1165C147.078 94.3509 147.087 94.6196 147.038 94.9226C146.962 95.3677 146.785 95.7536 146.508 96.0803C146.231 96.4046 145.868 96.6567 145.418 96.8366C144.968 97.0142 144.448 97.103 143.856 97.103C143.269 97.103 142.773 97.013 142.368 96.8331C141.963 96.6532 141.668 96.3868 141.484 96.0341C141.301 95.679 141.247 95.2398 141.32 94.7166H142.808C142.782 94.9605 142.818 95.1641 142.915 95.3274C143.014 95.4884 143.162 95.6103 143.359 95.6932C143.555 95.7737 143.786 95.8139 144.051 95.8139C144.314 95.8139 144.547 95.776 144.751 95.7003C144.957 95.6245 145.123 95.5192 145.251 95.3842C145.379 95.2493 145.457 95.0942 145.486 94.919C145.514 94.7557 145.489 94.6184 145.411 94.5071C145.333 94.3958 145.208 94.3011 145.035 94.223C144.864 94.1425 144.652 94.0715 144.399 94.0099L143.639 93.8111C143.052 93.6619 142.608 93.4287 142.307 93.1115C142.007 92.7943 141.899 92.367 141.984 91.8295C142.06 91.3892 142.244 91.0045 142.535 90.6754C142.828 90.344 143.198 90.0871 143.643 89.9048C144.09 89.7202 144.579 89.6278 145.109 89.6278C145.649 89.6278 146.105 89.7214 146.476 89.9084C146.848 90.093 147.119 90.3511 147.29 90.6825C147.46 91.014 147.512 91.3999 147.446 91.8402H145.972ZM152.525 91.8402C152.537 91.5443 152.45 91.3158 152.266 91.1548C152.083 90.9938 151.808 90.9134 151.438 90.9134C151.187 90.9134 150.97 90.9489 150.785 91.0199C150.6 91.0885 150.452 91.1844 150.341 91.3075C150.232 91.4283 150.165 91.5679 150.139 91.7266C150.113 91.8568 150.121 91.9704 150.163 92.0675C150.208 92.1645 150.278 92.2486 150.373 92.3196C150.47 92.3883 150.585 92.4486 150.717 92.5007C150.85 92.5504 150.991 92.593 151.14 92.6286L151.765 92.7848C152.07 92.8558 152.345 92.9505 152.589 93.0689C152.835 93.1873 153.041 93.3329 153.207 93.5057C153.375 93.6785 153.493 93.8821 153.562 94.1165C153.631 94.3509 153.64 94.6196 153.59 94.9226C153.515 95.3677 153.338 95.7536 153.061 96.0803C152.784 96.4046 152.421 96.6567 151.971 96.8366C151.521 97.0142 151 97.103 150.408 97.103C149.821 97.103 149.325 97.013 148.921 96.8331C148.516 96.6532 148.221 96.3868 148.036 96.0341C147.854 95.679 147.8 95.2398 147.873 94.7166H149.361C149.335 94.9605 149.37 95.1641 149.467 95.3274C149.567 95.4884 149.715 95.6103 149.911 95.6932C150.108 95.7737 150.339 95.8139 150.604 95.8139C150.867 95.8139 151.1 95.776 151.303 95.7003C151.509 95.6245 151.676 95.5192 151.804 95.3842C151.932 95.2493 152.01 95.0942 152.038 94.919C152.067 94.7557 152.042 94.6184 151.964 94.5071C151.886 94.3958 151.76 94.3011 151.587 94.223C151.417 94.1425 151.205 94.0715 150.952 94.0099L150.192 93.8111C149.605 93.6619 149.161 93.4287 148.86 93.1115C148.56 92.7943 148.452 92.367 148.537 91.8295C148.613 91.3892 148.796 91.0045 149.087 90.6754C149.381 90.344 149.75 90.0871 150.195 89.9048C150.643 89.7202 151.132 89.6278 151.662 89.6278C152.202 89.6278 152.658 89.7214 153.029 89.9084C153.401 90.093 153.672 90.3511 153.842 90.6825C154.013 91.014 154.065 91.3999 153.999 91.8402H152.525ZM161.553 93.4631C161.42 94.2396 161.163 94.8989 160.782 95.4411C160.403 95.9832 159.941 96.3951 159.394 96.6768C158.849 96.9586 158.262 97.0994 157.632 97.0994C156.972 97.0994 156.402 96.9491 155.924 96.6484C155.448 96.3478 155.104 95.9134 154.891 95.3452C154.678 94.7746 154.638 94.0869 154.77 93.282C154.898 92.5031 155.152 91.8426 155.534 91.3004C155.915 90.7559 156.38 90.3416 156.929 90.0575C157.478 89.7711 158.069 89.6278 158.701 89.6278C159.357 89.6278 159.923 89.7794 160.399 90.0824C160.877 90.3854 161.221 90.8234 161.432 91.3963C161.645 91.9669 161.685 92.6558 161.553 93.4631ZM160.022 93.282C160.105 92.7824 160.102 92.3634 160.012 92.0249C159.924 91.6839 159.763 91.4259 159.529 91.2507C159.294 91.0755 158.998 90.9879 158.641 90.9879C158.253 90.9879 157.896 91.085 157.572 91.2791C157.25 91.4732 156.978 91.755 156.755 92.1243C156.535 92.4912 156.382 92.9375 156.297 93.4631C156.212 93.965 156.214 94.384 156.304 94.7202C156.397 95.0563 156.561 95.3108 156.798 95.4837C157.037 95.6541 157.334 95.7393 157.689 95.7393C158.075 95.7393 158.428 95.6446 158.747 95.4553C159.069 95.2635 159.34 94.9853 159.561 94.6207C159.781 94.2538 159.935 93.8075 160.022 93.282ZM169.393 89.7273L168.185 97H166.857L164.46 92.4226H164.403L163.64 97H162.102L163.31 89.7273H164.659L167.046 94.3011H167.106L167.862 89.7273H169.393Z" fill="#151395"/>
<path d="M46 43H139" stroke="#141010" stroke-width="5" stroke-linejoin="round"/>
<defs>
<filter id="filter0_d_5_7" x="44.573" y="0.5" width="102.427" height="87" filterUnits="userSpaceOnUse" color-interpolation-filters="sRGB">
<feFlood flood-opacity="0" result="BackgroundImageFix"/>
<feColorMatrix in="SourceAlpha" type="matrix" values="0 0 0 0 0 0 0 0 0 0 0 0 0 0 0 0 0 0 127 0" result="hardAlpha"/>
<feOffset dy="4"/>
<feGaussianBlur stdDeviation="2"/>
<feComposite in2="hardAlpha" operator="out"/>
<feColorMatrix type="matrix" values="0 0 0 0 0 0 0 0 0 0 0 0 0 0 0 0 0 0 0.25 0"/>
<feBlend mode="normal" in2="BackgroundImageFix" result="effect1_dropShadow_5_7"/>
<feBlend mode="normal" in="SourceGraphic" in2="effect1_dropShadow_5_7" result="shape"/>
</filter>
</defs>
</svg>
